PathFileType	4	(X/Y/Z)	C:\Users\Basilio\Documents\Thesis Gigler\squatting_fais\c3dfiles\038\SJ_pre4\markers_experimental.trc
DataRate	CameraRate	NumFrames	NumMarkers	Units	OrigDataRate	OrigDataStartFrame	OrigNumFrames
200.000000	200.000000	4	61	mm	200.000000	1756	2007
Frame#	Time	FHD			LBHD			RBHD			C7			T10			CLAV			LSHO			LUUPA			LMUPA			LDUPA			LLEP			LMEP			LRAD			LUL			LRFIN			RSHO			RUPA1			RMUPA			RDUPA			RLEP			RMEP			RRAD			RUL			RUFIN			LASI			RASI			USACR			LSACR			RSACR			LTHI1			LTHI2			LTHI3			LTHI4			LLFC			LMFC			LTIB1			LTIB2			LTIB3			LTIB4			LLMAL			LMMAL			LHEE			LMT1			LMT2			LMT5			RTHI			RTHI2			RTHI3			RTHI4			RLFC			RMFC			RTIB1			RTIB2			RTIB3			RTIB4			RLMAL			RMMAL			RHEE			RMT1			RMT2			RMT5			
		X1	Y1	Z1	X2	Y2	Z2	X3	Y3	Z3	X4	Y4	Z4	X5	Y5	Z5	X6	Y6	Z6	X7	Y7	Z7	X8	Y8	Z8	X9	Y9	Z9	X10	Y10	Z10	X11	Y11	Z11	X12	Y12	Z12	X13	Y13	Z13	X14	Y14	Z14	X15	Y15	Z15	X16	Y16	Z16	X17	Y17	Z17	X18	Y18	Z18	X19	Y19	Z19	X20	Y20	Z20	X21	Y21	Z21	X22	Y22	Z22	X23	Y23	Z23	X24	Y24	Z24	X25	Y25	Z25	X26	Y26	Z26	X27	Y27	Z27	X28	Y28	Z28	X29	Y29	Z29	X30	Y30	Z30	X31	Y31	Z31	X32	Y32	Z32	X33	Y33	Z33	X34	Y34	Z34	X35	Y35	Z35	X36	Y36	Z36	X37	Y37	Z37	X38	Y38	Z38	X39	Y39	Z39	X40	Y40	Z40	X41	Y41	Z41	X42	Y42	Z42	X43	Y43	Z43	X44	Y44	Z44	X45	Y45	Z45	X46	Y46	Z46	X47	Y47	Z47	X48	Y48	Z48	X49	Y49	Z49	X50	Y50	Z50	X51	Y51	Z51	X52	Y52	Z52	X53	Y53	Z53	X54	Y54	Z54	X55	Y55	Z55	X56	Y56	Z56	X57	Y57	Z57	X58	Y58	Z58	X59	Y59	Z59	X60	Y60	Z60	X61	Y61	Z61	

1757	8.779999999999999	-209.5433349609376	1737.85693359375	-820.4456176757815	-367.6564636230469	1703.274658203125	-888.3374023437502	-366.2507629394532	1688.8984375	-743.3102416992189	-433.4383239746095	1531.924560546875	-812.4681396484377	-462.4602050781251	1244.375610351563	-833.1589965820315	-292.4405822753907	1492.135620117188	-833.6947021484377	-352.9382019042969	1544.31103515625	-994.7568969726565	-408.1412048339845	1379.787475585938	-1169.663208007813	-364.3033142089844	1354.544067382813	-1164.9052734375	-393.6968994140626	1322.455078125	-1207.064697265625	-378.2918701171876	1262.054931640625	-1227.58837890625	-450.3675231933595	1230.72119140625	-1200.040161132813	-325.9147949218751	1041.199096679688	-1041.00927734375	-287.1964111328126	1010.322570800781	-1095.896362304688	-301.1779479980469	998.7951660156252	-985.2132568359377	-309.3134155273438	1513.854125976563	-660.8931274414064	-279.2592468261719	1334.86962890625	-516.6381835937501	-261.2200012207032	1294.819702148438	-540.6447753906251	-271.2420959472657	1271.933837890625	-486.8799743652345	-258.6676330566407	1197.8701171875	-469.8976440429689	-340.1837158203126	1180.472045898438	-460.0977172851564	-304.0097656250001	972.9772949218752	-628.7152099609376	-242.2378540039063	947.0545654296877	-605.8041992187501	-276.0380249023438	967.5062255859377	-696.3601684570314	-318.8180847167969	1047.158935546875	-971.4923095703127	-304.0538024902344	1050.41650390625	-721.1820678710939	-476.6799926757814	1101.821655273438	-836.925476074219	-491.8346252441407	1071.933837890625	-863.204772949219	-485.7551269531251	1071.330200195313	-806.2486572265627	-384.5274658203126	733.4000854492189	-1051.734619140625	-355.4488220214844	653.3734741210939	-1058.597412109375	-307.8898925781251	657.6605834960939	-1043.199584960938	-381.3197021484376	602.8508300781251	-1038.842895507813	-375.1988525390626	542.9496459960939	-1040.462036132813	-336.2482604980469	518.4035034179689	-928.518737792969	-322.8433532714844	348.6778564453126	-1012.603759765625	-380.9866943359376	314.5233459472657	-1072.346801757813	-339.1622619628907	308.0963439941407	-1052.74462890625	-342.7015380859376	224.5003204345704	-1036.015869140625	-424.937225341797	87.23492431640626	-1060.055053710938	-367.4136352539063	96.48397064208987	-1001.319091796875	-452.4719238281251	44.42166137695313	-998.4624633789065	-252.9698028564454	47.68843078613282	-1067.4482421875	-265.4948120117188	52.39221572875978	-1116.291259765625	-318.7657775878907	31.66424369812012	-1147.588012695313	-370.8401184082032	782.2044677734377	-665.6549682617189	-336.5003356933594	724.4752197265626	-661.6488037109376	-303.5152893066407	724.4140625000001	-664.7553710937501	-367.4473266601563	646.7221069335939	-684.0772705078126	-356.0204467773438	510.3200073242189	-694.7731933593751	-349.8630676269532	512.2409057617189	-815.771911621094	-313.4557189941407	334.0124206542969	-721.8161010742189	-392.6528930664064	253.9897613525391	-694.1459960937501	-345.9763793945313	256.8960876464844	-700.5064086914064	-333.7318725585938	206.9040069580079	-729.8487548828126	-404.520233154297	88.60638427734376	-711.7918701171876	-362.2926940917969	92.69417572021486	-784.7434692382815	-447.1365051269532	39.14995193481446	-786.4028930664065	-238.2353057861329	48.73682403564455	-721.1632690429689	-252.3909912109376	53.47390747070314	-676.7722167968751	-304.6106262207032	35.52157211303712	-642.0451660156251	
1758	8.785	-207.7956085205079	1736.517211914063	-820.1751708984377	-366.2296142578126	1703.87451171875	-887.6651000976565	-364.6592712402344	1689.223022460938	-742.6932373046876	-433.2597656250001	1532.119384765625	-811.9056396484377	-462.5935668945314	1244.419677734375	-832.703552246094	-292.4561767578126	1491.95654296875	-833.1660156250002	-353.9929199218751	1544.646240234375	-993.9744873046877	-408.3900451660157	1379.872192382813	-1169.06005859375	-364.5431213378907	1354.692993164063	-1164.427856445313	-394.0941162109376	1322.472534179688	-1206.452026367188	-378.7221679687501	1262.153198242188	-1226.943359375	-450.9307556152345	1230.873168945313	-1199.344970703125	-326.3201904296876	1041.3037109375	-1040.612915039063	-287.5832519531251	1010.366577148438	-1095.6923828125	-301.4792480468751	998.8510742187502	-984.7580566406252	-309.2526550292969	1513.733032226563	-660.4279174804689	-279.3447265625001	1334.791625976563	-515.9707031250001	-261.5216674804688	1294.740356445313	-540.0764160156251	-271.5032348632813	1271.78076171875	-486.0905761718751	-258.9035644531251	1197.762451171875	-469.3397216796876	-340.4946899414063	1180.46875	-459.4736328125001	-304.3790893554688	973.0183105468752	-628.1307983398439	-242.5836791992188	947.0007324218752	-605.3488769531251	-276.2656860351563	967.3887329101565	-695.8895874023439	-319.3973083496094	1047.15234375	-970.8860473632815	-304.4910278320313	1050.290405273438	-720.5014038085939	-476.929168701172	1101.80517578125	-836.5021972656252	-492.2073364257814	1071.939453125	-862.6682128906252	-486.1752319335939	1071.41796875	-805.7474365234377	-384.8116455078126	733.4544067382814	-1051.347778320313	-355.8451232910157	653.3850708007814	-1058.157836914063	-308.1806335449219	657.6701049804689	-1042.8720703125	-381.6844177246094	602.8465576171876	-1038.480346679688	-375.5151367187501	542.9056396484376	-1040.251831054688	-336.6304626464844	518.4512329101564	-928.2376708984377	-323.1415405273438	348.8173828125001	-1012.386047363281	-381.1953430175782	314.6092529296876	-1072.125732421875	-339.4621582031251	308.2499084472657	-1052.425537109375	-342.8807678222657	224.4928436279297	-1035.883178710938	-424.9611816406251	87.22383117675783	-1060.0263671875	-367.4291381835938	96.54695129394534	-1001.264282226563	-452.5278320312501	44.41005325317384	-998.4353027343752	-252.9054260253907	47.72104263305665	-1067.438842773438	-265.5198059082032	52.40593338012697	-1116.25439453125	-318.7437133789063	31.64097595214844	-1147.554809570313	-371.0442504882813	782.1781005859377	-665.3302612304689	-336.7859802246094	724.4828491210939	-661.3417968750001	-303.7185363769532	724.3818359375001	-664.4420776367189	-367.8324279785157	646.7312011718751	-683.7446899414064	-356.3164367675782	510.3075561523439	-694.4951171875001	-350.3529052734376	512.3093261718751	-815.4987792968752	-313.7695312500001	334.0405883789063	-721.5567016601564	-392.8798828125001	254.0248565673829	-694.0799560546876	-346.1706542968751	256.9170532226563	-700.2857666015626	-333.8514404296876	206.9593811035157	-729.6938476562501	-404.6079711914064	88.57125091552736	-711.7672729492189	-362.3178710937501	92.7158889770508	-784.7069091796877	-446.7467346191407	38.87332916259766	-786.3475341796877	-238.6607818603516	48.08826065063478	-721.4791870117189	-252.4809112548829	53.30335998535158	-676.7413940429689	-304.6392211914063	35.4958610534668	-642.0643310546876	
1759	8.790000000000001	-206.073959350586	1735.081420898438	-819.7165527343752	-365.1196899414063	1703.919311523438	-887.051696777344	-363.3263549804688	1689.47412109375	-742.0887451171876	-433.036834716797	1532.123413085938	-811.2581787109377	-462.747772216797	1244.6015625	-832.1482543945315	-292.5338745117188	1491.780639648438	-832.496520996094	-354.0529785156251	1544.648803710938	-993.3760986328127	-408.7915039062501	1379.92138671875	-1168.390380859375	-365.0310668945313	1354.619140625	-1163.790771484375	-394.4900207519532	1322.489990234375	-1205.7626953125	-379.1466674804688	1262.209228515625	-1226.283203125	-451.025604248047	1230.482177734375	-1198.640747070313	-326.7742309570313	1041.383422851563	-1040.093139648438	-287.8286437988282	1010.387573242188	-1095.34375	-301.7619323730469	998.8023071289065	-984.3363037109377	-309.1664123535157	1513.673583984375	-659.9409179687501	-279.4216613769532	1334.643920898438	-515.5265502929689	-261.8195800781251	1294.535278320313	-539.4365844726564	-271.7553405761719	1271.70947265625	-485.3958435058595	-259.2889404296876	1197.564331054688	-468.4486694335939	-340.8393554687501	1180.345458984375	-458.8286743164064	-304.8634033203126	973.1085205078127	-627.5790405273439	-243.0077056884766	946.9917602539065	-604.6916503906251	-276.8828125000001	967.257507324219	-695.1866455078126	-319.8839416503907	1047.162353515625	-970.324890136719	-304.7204284667969	1050.280029296875	-720.0651855468751	-477.1876831054689	1101.8544921875	-836.1157836914065	-492.4815979003907	1071.99853515625	-862.179138183594	-486.5098266601564	1071.454833984375	-805.2248535156252	-385.2008056640626	733.5615234375001	-1050.921508789063	-356.1572265625001	653.4206542968751	-1057.828125	-308.4587707519532	657.7099609375001	-1042.579467773438	-381.5708007812501	602.4650878906251	-1038.132202148438	-375.9037475585938	542.8667602539064	-1039.40087890625	-337.0201110839844	518.4003906250001	-927.8518676757815	-323.4733886718751	349.0097351074219	-1012.201477050781	-381.4005126953126	314.6868591308594	-1071.898681640625	-340.0612487792969	307.8723754882813	-1052.438110351563	-343.3318786621094	224.0592193603516	-1036.051025390625	-425.0131835937501	87.30369567871095	-1059.964233398438	-367.4591369628907	96.56669616699222	-1001.218017578125	-452.5079956054689	44.40192413330079	-998.4356689453127	-253.0015106201172	47.80752563476563	-1067.439453125	-265.4988403320313	52.49459457397462	-1116.250122070313	-318.7523498535157	31.67281150817872	-1147.564575195313	-371.1991882324219	782.1365966796877	-665.0318603515626	-337.0487976074219	724.2846069335939	-660.8017578125001	-304.0318603515626	724.4141845703126	-664.0934448242189	-368.3042297363282	646.7722167968751	-683.2905273437501	-356.5898742675782	510.1924133300782	-694.0987548828126	-350.7950744628907	512.3970336914064	-815.2593994140627	-314.0065612792969	334.1689758300782	-721.3624877929689	-393.0379638671876	253.9326324462891	-693.9563598632814	-346.4204406738282	256.8483276367188	-700.1499633789064	-334.0081176757813	206.9968566894532	-729.6085205078126	-404.6467895507814	88.57665252685548	-711.7561035156251	-361.9467773437501	92.46174621582033	-784.5313720703127	-447.0412597656251	39.13575744628907	-786.3511352539065	-238.1837921142579	48.88967514038087	-721.0845947265626	-252.3785400390626	53.47512817382814	-676.7629394531251	-304.6101074218751	35.50346374511719	-642.0415649414064	
1760	8.795	-204.2025146484376	1733.642944335938	-819.945983886719	-363.8279113769532	1704.25390625	-886.479431152344	-361.6987609863282	1689.767211914063	-741.3936767578126	-432.9291992187501	1532.255493164063	-810.6369628906252	-462.9654846191407	1244.674072265625	-831.7207641601565	-292.4860229492188	1491.633422851563	-831.822204589844	-354.1691284179688	1544.69287109375	-992.787536621094	-409.1207580566407	1380.020874023438	-1167.75244140625	-365.5591125488282	1354.55908203125	-1163.058227539063	-395.0213623046876	1322.634155273438	-1205.129028320313	-379.7582397460938	1262.257934570313	-1225.7470703125	-451.4127197265626	1230.595825195313	-1198.013305664063	-327.0595703125001	1041.425048828125	-1039.580932617188	-288.1345825195313	1010.420654296875	-1094.703491210938	-302.1061096191407	998.8400878906252	-983.929626464844	-309.0000915527344	1513.534057617188	-659.4124755859376	-279.5475158691407	1334.565551757813	-514.7725830078126	-262.0680847167969	1294.39013671875	-538.6262207031251	-272.0161743164063	1271.623779296875	-484.7523803710939	-259.6024169921876	1197.412841796875	-467.7330017089845	-341.1459045410157	1180.242797851563	-458.2359008789064	-305.1509094238282	973.0903320312502	-627.1204223632814	-243.509262084961	946.7932739257815	-603.9922485351564	-277.4516601562501	967.4020996093752	-694.4561157226564	-319.9795532226563	1047.211547851563	-969.9497680664065	-305.0209960937501	1050.375244140625	-719.5712280273439	-477.5172119140626	1101.931518554688	-835.6994628906252	-492.7418518066407	1071.983642578125	-861.7549438476565	-486.711639404297	1071.507568359375	-804.8552856445315	-385.5859985351564	733.5617675781251	-1050.539184570313	-356.4854125976563	653.4785766601564	-1057.437744140625	-308.7902221679688	657.7122192382814	-1042.208984375	-382.4509582519532	602.8532714843751	-1037.748901367188	-376.1754760742188	542.9803466796876	-1039.549926757813	-337.3221740722657	518.3856201171876	-927.5976562500002	-323.7148132324219	349.1428833007813	-1011.99609375	-381.6282043457032	314.7319641113282	-1071.738403320313	-340.4305114746094	307.9545898437501	-1052.242919921875	-343.1273498535157	224.4319305419922	-1035.951904296875	-425.0477905273439	87.25188446044923	-1060.001953125	-367.4297790527344	96.5888595581055	-1001.134521484375	-452.4532775878907	44.40733718872071	-998.3759765625002	-252.9714965820313	47.59928894042969	-1067.426025390625	-265.4938964843751	52.53440475463869	-1116.222900390625	-318.7296752929688	31.65877532958985	-1147.52880859375	-371.5303649902344	782.1258544921877	-664.6190185546876	-337.3107910156251	723.9215087890626	-660.2029418945314	-304.4096679687501	724.6246948242189	-663.5466308593751	-368.6043090820313	646.7244262695314	-682.9798583984376	-356.9186706542969	510.1909484863282	-693.7801513671876	-351.1187744140626	512.5212402343751	-815.0061035156252	-314.2231750488282	334.1764526367188	-721.1392822265626	-393.270721435547	253.9306335449219	-693.8227539062501	-346.6330261230469	256.8471374511719	-699.9705200195314	-334.1284179687501	206.991683959961	-729.5203247070314	-404.7271118164064	88.53472900390626	-711.7239379882814	-362.5267333984376	92.73281097412111	-784.6271972656252	-446.7503051757814	38.91233825683594	-786.303161621094	-238.6482543945313	48.03543090820314	-721.4708251953126	-252.4532470703126	53.40566253662111	-676.7382202148439	-304.5910339355469	35.5105323791504	-641.9832763671876	
